<svg width="53" height="26" viewBox="0 0 53 26" fill="none" xmlns="http://www.w3.org/2000/svg">
<path d="M5.27657 0V24.9571H0V0H5.27657Z" fill="white"/>
<path d="M12.9958 14.1358V24.9571H7.80457V6.23927H12.7521V9.54169H12.9715C13.3858 8.45307 14.0804 7.59192 15.0553 6.95824C16.0302 6.31645 17.2122 5.99555 18.6014 5.99555C19.9013 5.99555 21.0346 6.27989 22.0013 6.84857C22.9681 7.41725 23.7196 8.22966 24.2558 9.28578C24.7919 10.3338 25.06 11.5849 25.06 13.0391V24.9571H19.8688V13.9652C19.8769 12.8197 19.5844 11.9261 18.9914 11.2843C18.3983 10.6344 17.5819 10.3094 16.542 10.3094C15.8433 10.3094 15.2259 10.4597 14.6897 10.7603C14.1616 11.0609 13.7473 11.4996 13.4467 12.0764C13.1543 12.6451 13.004 13.3316 12.9958 14.1358Z" fill="white"/>
<path d="M37.3917 6.23927V10.1388H26.1196V6.23927H37.3917ZM28.6787 1.75479H33.87V19.2052C33.87 19.6846 33.9431 20.0583 34.0893 20.3264C34.2355 20.5863 34.4386 20.7691 34.6986 20.8747C34.9667 20.9803 35.2754 21.0332 35.6248 21.0332C35.8685 21.0332 36.1122 21.0128 36.3559 20.9722C36.5996 20.9235 36.7865 20.8869 36.9165 20.8625L37.7329 24.7255C37.473 24.8068 37.1074 24.9002 36.6362 25.0058C36.165 25.1195 35.5923 25.1886 34.918 25.213C33.6669 25.2617 32.5701 25.0952 31.6277 24.7133C30.6935 24.3315 29.9664 23.7385 29.4464 22.9342C28.9265 22.1299 28.6706 21.1144 28.6787 19.8877V1.75479Z" fill="white"/>
<path d="M39.0576 24.9571V6.23927H44.0904V9.50513H44.2854C44.6266 8.34339 45.1993 7.466 46.0036 6.87294C46.8079 6.27176 47.734 5.97117 48.782 5.97117C49.042 5.97117 49.3223 5.98742 49.6229 6.01992C49.9235 6.05241 50.1875 6.0971 50.415 6.15396V10.7603C50.1713 10.6872 49.8341 10.6222 49.4035 10.5653C48.973 10.5085 48.5789 10.48 48.2215 10.48C47.4578 10.48 46.7754 10.6466 46.1742 10.9796C45.5812 11.3046 45.11 11.7596 44.7606 12.3445C44.4194 12.9294 44.2488 13.6037 44.2488 14.3674V24.9571H39.0576Z" fill="white"/>
<path d="M51.7147 4.37663C52.4264 4.37663 52.9998 3.81711 52.9998 3.1263C52.9998 2.4355 52.4247 1.87598 51.7147 1.87598C51.0048 1.87598 50.4297 2.4355 50.4297 3.1263C50.4297 3.81711 51.0048 4.37663 51.7147 4.37663ZM51.7147 4.04686C51.1927 4.04686 50.7702 3.63425 50.7702 3.1263C50.7702 2.61836 51.1927 2.20575 51.7147 2.20575C52.2384 2.20575 52.6609 2.61836 52.6609 3.1263C52.6609 3.63581 52.2384 4.04686 51.7147 4.04686ZM51.2505 3.68895H51.5589V3.30135H51.7565L51.9396 3.68895H52.277L52.0521 3.24509C52.1661 3.18257 52.2416 3.0716 52.2416 2.91687C52.2416 2.67462 52.0553 2.53552 51.8304 2.53552H51.2505V3.68895ZM51.5589 3.08411V2.75746H51.7533C51.84 2.75746 51.9171 2.80278 51.9171 2.91687C51.9171 3.02784 51.8417 3.08411 51.7517 3.08411H51.5589Z" fill="white"/>
</svg>
