<svg width="229" height="36" viewBox="0 0 229 36" fill="none" xmlns="http://www.w3.org/2000/svg">
<path d="M73.5355 5.45435C73.5355 6.50422 74.4163 7.38706 75.4876 7.38706C76.5826 7.38706 77.4396 6.50422 77.4396 5.45435C77.4396 4.35676 76.5826 3.47392 75.4876 3.47392C74.4163 3.47392 73.5355 4.35676 73.5355 5.45435Z" fill="black"/>
<path d="M35.2756 5.40963C35.2756 6.4595 36.1564 7.34235 37.2277 7.34235C38.3227 7.34235 39.1797 6.4595 39.1797 5.40963C39.1797 4.31205 38.3227 3.4292 37.2277 3.4292C36.1564 3.4292 35.2756 4.31205 35.2756 5.40963Z" fill="black"/>
<path d="M39.1213 24.3654V10.1185H35.279V24.3654H39.1213Z" fill="black"/>
<path d="M25.7746 13.2169C24.1567 13.2169 23.2034 14.4331 23.1167 15.9968V24.3654H19.2743V3.40038H23.1167V11.3057C24.0412 10.2053 25.6012 9.74202 26.9591 9.74202C30.5703 9.74202 32.246 12.2613 32.246 15.3887V24.3654H28.4036V16.0547C28.4036 14.4621 27.6235 13.2169 25.7746 13.2169Z" fill="black"/>
<path d="M48.8686 13.2169C47.193 13.2169 46.2107 14.52 46.2107 16.1705V24.3654H42.3683V10.1185H46.0951V11.8849C46.9618 10.408 48.6664 9.74202 50.1975 9.74202C53.7221 9.74202 55.34 12.2613 55.34 15.3887V24.3654H51.4976V16.0547C51.4976 14.4621 50.7176 13.2169 48.8686 13.2169Z" fill="black"/>
<path d="M72.1536 10.1185H67.1267L62.2154 15.4176V3.40038H58.373V24.3654H62.2154V20.601L63.8043 18.9215L67.56 24.3654H72.2691L66.4622 16.1126L72.1536 10.1185Z" fill="black"/>
<path d="M77.4865 10.1185V24.3654H73.6441V10.1185H77.4865Z" fill="black"/>
<path d="M84.5758 16.1705C84.5758 14.52 85.5581 13.2169 87.2337 13.2169C89.0827 13.2169 89.8627 14.4621 89.8627 16.0547V24.3654H93.7051V15.3887C93.7051 12.2613 92.0873 9.74202 88.5627 9.74202C87.0315 9.74202 85.327 10.408 84.4603 11.8849V10.1185H80.7335V24.3654H84.5758V16.1705Z" fill="black"/>
<path fill-rule="evenodd" clip-rule="evenodd" d="M116.446 24.3654V22.628C117.197 23.8442 118.699 24.7129 120.664 24.7129C124.709 24.7129 127.366 21.4987 127.366 17.184C127.366 12.9563 124.969 9.74202 120.808 9.74202C118.699 9.74202 117.139 10.6687 116.504 11.6822V3.40038H112.719V24.3654H116.446ZM123.524 17.213C123.524 19.8192 121.964 21.267 119.999 21.267C118.064 21.267 116.446 19.7902 116.446 17.213C116.446 14.6068 118.064 13.1879 119.999 13.1879C121.964 13.1879 123.524 14.6068 123.524 17.213Z" fill="black"/>
<path fill-rule="evenodd" clip-rule="evenodd" d="M128.473 17.242C128.473 12.8404 131.68 9.68411 135.927 9.68411C140.174 9.68411 143.38 12.8404 143.38 17.242C143.38 21.6145 140.174 24.7997 135.927 24.7997C131.68 24.7997 128.473 21.6145 128.473 17.242ZM132.315 17.242C132.315 19.906 134.049 21.2959 135.927 21.2959C137.805 21.2959 139.538 19.935 139.538 17.242C139.538 14.5489 137.805 13.1879 135.927 13.1879C134.049 13.1879 132.315 14.5489 132.315 17.242Z" fill="black"/>
<path d="M143.306 24.3654H147.64C147.983 23.8189 149.018 22.2823 149.787 21.1396L149.79 21.1349L149.791 21.1342L149.797 21.1253C150.124 20.6393 150.402 20.226 150.557 19.9929L153.533 24.3654H158.04L152.898 17.0972L157.867 10.1185H153.504L150.702 14.3462C150.456 13.9553 149.871 13.0938 149.286 12.2323L149.285 12.2308C148.701 11.3698 148.116 10.5092 147.871 10.1185H143.306L148.362 17.213L143.306 24.3654Z" fill="black"/>
<path fill-rule="evenodd" clip-rule="evenodd" d="M103.206 10.0814H111.015V13.2119H108.502C109.109 14.213 109.453 15.4094 109.453 16.734C109.453 20.5826 106.513 23.3863 102.621 23.3863C101.778 23.3863 100.979 23.2548 100.246 23.0096C99.8387 23.4981 99.4079 24.1011 99.4806 24.3017C99.6176 24.7852 100.248 25.2385 101.617 25.2687L104.602 25.2989C107.752 25.3594 109.916 26.8098 110.19 29.4689C110.573 33.5482 107.588 35.7843 103.123 35.9052C98.9602 35.9958 96.5774 34.0619 96.2213 31.6143C96.0296 30.2848 96.4678 28.1696 98.0016 27.2328C97.2073 26.9306 96.4404 25.8428 96.4404 24.6946C96.4404 23.5993 96.9291 22.2788 97.6929 21.4525C96.5027 20.2739 95.7887 18.6308 95.7887 16.734C95.7887 12.8598 98.7281 10.0816 102.621 10.0816C102.819 10.0816 103.014 10.0888 103.206 10.1029V10.0814ZM99.701 16.734C99.701 18.8862 101.059 19.911 102.621 19.911C104.182 19.911 105.54 19.0819 105.54 16.734C105.54 14.3861 104.182 13.557 102.621 13.557C101.059 13.557 99.701 14.5817 99.701 16.734ZM106.43 30.1639C106.54 31.705 105.315 32.3108 102.849 32.3108C100.85 32.3108 99.7889 31.9165 99.7889 30.4056C99.7889 29.5898 99.8641 29.0141 100.713 28.7724H103.041C103.08 28.7724 103.118 28.7724 103.156 28.7724C105.066 28.7718 106.377 28.7714 106.43 30.1639Z" fill="black"/>
<path d="M17.0945 7.286V3.46217H0V7.286H6.52328V24.1575H10.5712V7.286H17.0945Z" fill="black"/>
<path d="M161.205 7.76137C162.706 7.76137 163.916 6.54546 163.916 5.04426C163.916 3.54305 162.703 2.32715 161.205 2.32715C159.707 2.32715 158.494 3.54305 158.494 5.04426C158.494 6.54546 159.707 7.76137 161.205 7.76137ZM161.205 7.04473C160.104 7.04473 159.212 6.14808 159.212 5.04426C159.212 3.94043 160.104 3.04379 161.205 3.04379C162.309 3.04379 163.201 3.94043 163.201 5.04426C163.201 6.15148 162.309 7.04473 161.205 7.04473ZM160.226 6.26696H160.876V5.42465H161.293L161.679 6.26696H162.391L161.916 5.30238C162.157 5.16653 162.316 4.92538 162.316 4.58914C162.316 4.0627 161.923 3.76042 161.449 3.76042H160.226V6.26696ZM160.876 4.95255V4.24271H161.286C161.469 4.24271 161.632 4.3412 161.632 4.58914C161.632 4.83028 161.473 4.95255 161.283 4.95255H160.876Z" fill="black"/>
<path d="M186.358 3.54639V24.1608H182V3.54639H186.358Z" fill="white"/>
<path d="M192.735 15.2225V24.1608H188.447V8.7H192.533V11.4278H192.714C193.057 10.5286 193.63 9.81729 194.436 9.29388C195.241 8.76375 196.217 8.49869 197.365 8.49869C198.438 8.49869 199.374 8.73355 200.173 9.20328C200.972 9.67302 201.592 10.3441 202.035 11.2164C202.478 12.0821 202.7 13.1155 202.7 14.3166V24.1608H198.412V15.0816C198.418 14.1355 198.177 13.3973 197.687 12.8672C197.197 12.3303 196.523 12.0619 195.664 12.0619C195.087 12.0619 194.577 12.1861 194.134 12.4344C193.697 12.6826 193.355 13.045 193.107 13.5215C192.865 13.9912 192.741 14.5582 192.735 15.2225Z" fill="white"/>
<path d="M212.885 8.7V11.921H203.575V8.7H212.885ZM205.689 4.99584H209.976V19.4099C209.976 19.8058 210.037 20.1145 210.158 20.3359C210.278 20.5506 210.446 20.7016 210.661 20.7889C210.882 20.8761 211.137 20.9197 211.426 20.9197C211.627 20.9197 211.829 20.9029 212.03 20.8694C212.231 20.8291 212.386 20.7989 212.493 20.7788L213.167 23.9696C212.953 24.0367 212.651 24.1139 212.261 24.2011C211.872 24.2951 211.399 24.3521 210.842 24.3722C209.809 24.4125 208.903 24.2749 208.124 23.9595C207.353 23.6441 206.752 23.1543 206.323 22.4899C205.893 21.8256 205.682 20.9868 205.689 19.9735V4.99584Z" fill="white"/>
<path d="M214.261 24.1608V8.7H218.419V11.3976H218.58C218.861 10.438 219.335 9.71328 219.999 9.22342C220.663 8.72684 221.428 8.47856 222.294 8.47856C222.509 8.47856 222.74 8.49198 222.988 8.51882C223.237 8.54566 223.455 8.58257 223.643 8.62954V12.4344C223.441 12.374 223.163 12.3203 222.807 12.2733C222.452 12.2263 222.126 12.2029 221.831 12.2029C221.2 12.2029 220.636 12.3404 220.14 12.6155C219.65 12.884 219.261 13.2597 218.972 13.7429C218.69 14.226 218.549 14.783 218.549 15.4138V24.1608H214.261Z" fill="white"/>
<path d="M226.327 7.16119C227.807 7.16119 229 5.99741 229 4.56057C229 3.12373 227.804 1.95996 226.327 1.95996C224.85 1.95996 223.654 3.12373 223.654 4.56057C223.654 5.99741 224.85 7.16119 226.327 7.16119ZM226.327 6.47527C225.241 6.47527 224.363 5.61707 224.363 4.56057C224.363 3.50407 225.241 2.64587 226.327 2.64587C227.416 2.64587 228.295 3.50407 228.295 4.56057C228.295 5.62032 227.416 6.47527 226.327 6.47527ZM225.362 5.73085H226.003V4.92466H226.414L226.795 5.73085H227.497L227.029 4.80763C227.266 4.6776 227.423 4.4468 227.423 4.12497C227.423 3.6211 227.035 3.33178 226.568 3.33178H225.362V5.73085ZM226.003 4.4728V3.79339H226.407C226.588 3.79339 226.748 3.88766 226.748 4.12497C226.748 4.35578 226.591 4.4728 226.404 4.4728H226.003Z" fill="white"/>
<path d="M177.975 0L170.459 28.0397H168L175.515 0H177.975Z" fill="white"/>
</svg>
