<svg width="408" height="82" viewBox="0 0 408 82" fill="none" xmlns="http://www.w3.org/2000/svg">
<path d="M183.036 8.44071C183.036 10.9918 185.229 13.1371 187.895 13.1371C190.621 13.1371 192.754 10.9918 192.754 8.44071C192.754 5.77363 190.621 3.62838 187.895 3.62838C185.229 3.62838 183.036 5.77363 183.036 8.44071Z" fill="#F5F0E9"/>
<path d="M87.8041 7.49024C87.8041 10.0414 89.9965 12.1866 92.6629 12.1866C95.3886 12.1866 97.5217 10.0414 97.5217 7.49023C97.5217 4.82316 95.3886 2.67791 92.6629 2.67791C89.9965 2.67791 87.8041 4.82316 87.8041 7.49024Z" fill="#F5F0E9"/>
<path d="M97.3764 53.5515L97.3764 18.9324L87.8124 18.9324L87.8124 53.5515L97.3764 53.5515Z" fill="#F5F0E9"/>
<path d="M64.1551 26.4614C60.1282 26.4614 57.7551 29.4167 57.5394 33.2164L57.5394 53.5515L47.9754 53.5515L47.9754 2.60788L57.5394 2.60788L57.5394 21.8174C59.8405 19.1435 63.7237 18.0177 67.1034 18.0177C76.0922 18.0177 80.2629 24.1394 80.2629 31.7387L80.2629 53.5515L70.6989 53.5515L70.6989 33.3571C70.6989 29.4871 68.7573 26.4614 64.1551 26.4614Z" fill="#F5F0E9"/>
<path d="M121.638 26.4614C117.467 26.4614 115.022 29.6278 115.022 33.6386L115.022 53.5515L105.458 53.5515L105.458 18.9324L114.735 18.9324L114.735 23.2246C116.892 19.636 121.135 18.0177 124.946 18.0177C133.719 18.0177 137.746 24.1394 137.746 31.7387L137.746 53.5515L128.182 53.5515L128.182 33.3571C128.182 29.4871 126.24 26.4614 121.638 26.4614Z" fill="#F5F0E9"/>
<path d="M179.596 18.9324L167.084 18.9324L154.859 31.8091L154.859 2.60786L145.295 2.60786L145.295 53.5515L154.859 53.5515L154.859 44.4043L158.814 40.3231L168.163 53.5515L179.884 53.5515L165.43 33.4978L179.596 18.9324Z" fill="#F5F0E9"/>
<path d="M192.87 18.9324L192.87 53.5515L183.306 53.5515L183.306 18.9324L192.87 18.9324Z" fill="#F5F0E9"/>
<path d="M210.517 33.6386C210.517 29.6278 212.961 26.4614 217.132 26.4614C221.734 26.4614 223.676 29.487 223.676 33.3571L223.676 53.5515L233.24 53.5515L233.24 31.7387C233.24 24.1394 229.213 18.0176 220.44 18.0176C216.629 18.0176 212.386 19.636 210.229 23.2246L210.229 18.9324L200.952 18.9324L200.952 53.5515L210.517 53.5515L210.517 33.6386Z" fill="#F5F0E9"/>
<path fill-rule="evenodd" clip-rule="evenodd" d="M289.844 53.5515L289.844 49.3297C291.714 52.2851 295.453 54.3959 300.343 54.3959C310.41 54.3959 317.026 46.5856 317.026 36.1013C317.026 25.8281 311.057 18.0176 300.702 18.0176C295.453 18.0176 291.57 20.2693 289.988 22.7321L289.988 2.60784L280.568 2.60784L280.568 53.5515L289.844 53.5515ZM307.462 36.1717C307.462 42.5045 303.579 46.0226 298.689 46.0226C293.871 46.0226 289.844 42.4341 289.844 36.1717C289.844 29.8389 293.871 26.391 298.689 26.391C303.579 26.391 307.462 29.8389 307.462 36.1717Z" fill="#F5F0E9"/>
<path fill-rule="evenodd" clip-rule="evenodd" d="M319.78 36.242C319.78 25.5466 327.762 17.8769 338.333 17.8769C348.904 17.8769 356.886 25.5466 356.886 36.242C356.886 46.867 348.904 54.6069 338.333 54.607C327.762 54.607 319.78 46.867 319.78 36.242ZM329.344 36.242C329.344 42.7155 333.659 46.093 338.333 46.093C343.007 46.093 347.322 42.7859 347.322 36.242C347.322 29.6981 343.007 26.391 338.333 26.391C333.659 26.391 329.344 29.6981 329.344 36.242Z" fill="#F5F0E9"/>
<path d="M356.701 53.5515L367.488 53.5515C368.342 52.2236 370.918 48.4898 372.833 45.7131L372.841 45.7017L372.842 45.7L372.857 45.6784C373.672 44.4973 374.364 43.493 374.75 42.9266L382.157 53.5515L393.375 53.5515L380.575 35.8902L392.944 18.9324L382.085 18.9324L375.11 29.2056C374.499 28.2556 373.043 26.1623 371.586 24.069L371.584 24.0652C370.129 21.9731 368.674 19.8817 368.063 18.9324L356.701 18.9324L369.285 36.1716L356.701 53.5515Z" fill="#F5F0E9"/>
<path fill-rule="evenodd" clip-rule="evenodd" d="M256.89 18.8423L276.325 18.8423L276.325 26.4493L270.07 26.4493C271.582 28.8819 272.438 31.7891 272.438 35.0077C272.438 44.3597 265.121 51.1725 255.432 51.1725C253.333 51.1725 251.346 50.8528 249.52 50.257C248.507 51.4442 247.435 52.9093 247.616 53.3969C247.957 54.5717 249.525 55.6731 252.933 55.7465L260.364 55.82C268.204 55.9668 273.59 59.4913 274.272 65.9527C275.226 75.8653 267.795 81.2988 256.683 81.5925C246.321 81.8128 240.389 77.1135 239.503 71.166C239.026 67.9353 240.117 62.7954 243.934 60.5192C241.957 59.785 240.049 57.1416 240.049 54.3514C240.049 51.69 241.265 48.4812 243.166 46.4734C240.203 43.6094 238.426 39.617 238.426 35.0077C238.426 25.5937 245.743 18.8429 255.432 18.8429C255.924 18.8429 256.41 18.8603 256.89 18.8946L256.89 18.8423ZM248.164 35.0077C248.164 40.2374 251.545 42.7276 255.432 42.7276C259.319 42.7276 262.699 40.7129 262.699 35.0077C262.699 29.3024 259.319 27.2878 255.432 27.2878C251.545 27.2878 248.164 29.7779 248.164 35.0077ZM264.915 67.6416C265.187 71.3863 262.137 72.8585 256.001 72.8585C251.024 72.8585 248.383 71.9003 248.383 68.229C248.383 66.2465 248.57 64.8477 250.684 64.2603L256.478 64.2603C256.574 64.2603 256.67 64.2603 256.765 64.2602C261.518 64.2589 264.781 64.258 264.915 67.6416Z" fill="#F5F0E9"/>
<path d="M42.5497 12.0497L42.5497 2.75803L4.8223e-07 2.75804L2.10684e-06 12.0497L16.237 12.0497L16.237 53.0465L26.3127 53.0465L26.3127 12.0497L42.5497 12.0497Z" fill="#F5F0E9"/>
<path d="M401.253 13.2047C404.989 13.2047 408 10.2502 408 6.60234C408 2.95451 404.98 -7.0809e-05 401.253 -7.01572e-05C397.525 -6.95054e-05 394.505 2.95451 394.505 6.60234C394.505 10.2502 397.525 13.2047 401.253 13.2047ZM401.253 11.4634C398.511 11.4634 396.293 9.28457 396.293 6.60234C396.293 3.92011 398.511 1.74132 401.253 1.74132C404.002 1.74131 406.22 3.92011 406.22 6.60234C406.22 9.29282 404.002 11.4634 401.253 11.4634ZM398.815 9.57342L400.434 9.57342L400.434 7.52668L401.472 7.52668L402.433 9.57342L404.205 9.57342L403.024 7.22957C403.623 6.89945 404.019 6.31348 404.019 5.49643C404.019 4.21722 403.041 3.4827 401.86 3.4827L398.815 3.4827L398.815 9.57342ZM400.434 6.37951L400.434 4.65463L401.455 4.65463C401.91 4.65463 402.315 4.89396 402.315 5.49643C402.315 6.0824 401.919 6.37951 401.447 6.37951L400.434 6.37951Z" fill="#F5F0E9"/>
</svg>
