<svg viewBox="0 0 218 36" fill="none" xmlns="http://www.w3.org/2000/svg">
<path d="M127.62 5.45435C127.62 6.50422 128.5 7.38706 129.572 7.38706C130.667 7.38706 131.524 6.50422 131.524 5.45435C131.524 4.35676 130.667 3.47392 129.572 3.47392C128.5 3.47392 127.62 4.35676 127.62 5.45435Z" fill="white"/>
<path d="M89.3596 5.40963C89.3596 6.4595 90.2404 7.34235 91.3117 7.34235C92.4067 7.34235 93.2637 6.4595 93.2637 5.40963C93.2637 4.31205 92.4067 3.4292 91.3117 3.4292C90.2404 3.4292 89.3596 4.31205 89.3596 5.40963Z" fill="white"/>
<path d="M93.2053 24.3654V10.1185H89.3629V24.3654H93.2053Z" fill="white"/>
<path d="M79.8586 13.2169C78.2407 13.2169 77.2873 14.4331 77.2007 15.9968V24.3654H73.3583V3.40038H77.2007V11.3057C78.1251 10.2053 79.6852 9.74202 81.043 9.74202C84.6543 9.74202 86.3299 12.2613 86.3299 15.3887V24.3654H82.4876V16.0547C82.4876 14.4621 81.7075 13.2169 79.8586 13.2169Z" fill="white"/>
<path d="M102.953 13.2169C101.277 13.2169 100.295 14.52 100.295 16.1705V24.3654H96.4523V10.1185H100.179V11.8849C101.046 10.408 102.75 9.74202 104.282 9.74202C107.806 9.74202 109.424 12.2613 109.424 15.3887V24.3654H105.582V16.0547C105.582 14.4621 104.802 13.2169 102.953 13.2169Z" fill="white"/>
<path d="M126.238 10.1185H121.211L116.299 15.4176V3.40038H112.457V24.3654H116.299V20.601L117.888 18.9215L121.644 24.3654H126.353L120.546 16.1126L126.238 10.1185Z" fill="white"/>
<path d="M131.57 10.1185V24.3654H127.728V10.1185H131.57Z" fill="white"/>
<path d="M138.66 16.1705C138.66 14.52 139.642 13.2169 141.318 13.2169C143.167 13.2169 143.947 14.4621 143.947 16.0547V24.3654H147.789V15.3887C147.789 12.2613 146.171 9.74202 142.647 9.74202C141.115 9.74202 139.411 10.408 138.544 11.8849V10.1185H134.817V24.3654H138.66V16.1705Z" fill="white"/>
<path fill-rule="evenodd" clip-rule="evenodd" d="M170.53 24.3654V22.628C171.281 23.8442 172.783 24.7129 174.748 24.7129C178.793 24.7129 181.45 21.4987 181.45 17.184C181.45 12.9563 179.053 9.74202 174.892 9.74202C172.783 9.74202 171.223 10.6687 170.588 11.6822V3.40038H166.803V24.3654H170.53ZM177.608 17.213C177.608 19.8192 176.048 21.267 174.083 21.267C172.148 21.267 170.53 19.7902 170.53 17.213C170.53 14.6068 172.148 13.1879 174.083 13.1879C176.048 13.1879 177.608 14.6068 177.608 17.213Z" fill="white"/>
<path fill-rule="evenodd" clip-rule="evenodd" d="M182.557 17.242C182.557 12.8404 185.764 9.68411 190.011 9.68411C194.258 9.68411 197.464 12.8404 197.464 17.242C197.464 21.6145 194.258 24.7997 190.011 24.7997C185.764 24.7997 182.557 21.6145 182.557 17.242ZM186.399 17.242C186.399 19.906 188.133 21.2959 190.011 21.2959C191.889 21.2959 193.622 19.935 193.622 17.242C193.622 14.5489 191.889 13.1879 190.011 13.1879C188.133 13.1879 186.399 14.5489 186.399 17.242Z" fill="white"/>
<path d="M197.39 24.3654H201.724C202.067 23.8189 203.102 22.2823 203.871 21.1396L203.874 21.1349L203.875 21.1342L203.881 21.1253C204.208 20.6393 204.486 20.226 204.641 19.9929L207.617 24.3654H212.124L206.982 17.0972L211.951 10.1185H207.588L204.786 14.3462C204.54 13.9553 203.955 13.0938 203.37 12.2323L203.369 12.2308C202.785 11.3698 202.2 10.5092 201.955 10.1185H197.39L202.446 17.213L197.39 24.3654Z" fill="white"/>
<path fill-rule="evenodd" clip-rule="evenodd" d="M157.29 10.0814H165.099V13.2119H162.585C163.193 14.213 163.537 15.4094 163.537 16.734C163.537 20.5826 160.597 23.3863 156.705 23.3863C155.862 23.3863 155.063 23.2548 154.33 23.0096C153.923 23.4981 153.492 24.1011 153.565 24.3017C153.702 24.7852 154.332 25.2385 155.701 25.2687L158.686 25.2989C161.836 25.3594 164 26.8098 164.274 29.4689C164.657 33.5482 161.672 35.7843 157.207 35.9052C153.044 35.9958 150.661 34.0619 150.305 31.6143C150.114 30.2848 150.552 28.1696 152.086 27.2328C151.291 26.9307 150.524 25.8428 150.524 24.6946C150.524 23.5993 151.013 22.2788 151.777 21.4525C150.587 20.2739 149.873 18.6308 149.873 16.734C149.873 12.8598 152.812 10.0816 156.705 10.0816C156.903 10.0816 157.098 10.0888 157.29 10.1029V10.0814ZM153.785 16.734C153.785 18.8862 155.143 19.911 156.705 19.911C158.266 19.911 159.624 19.0819 159.624 16.734C159.624 14.3861 158.266 13.557 156.705 13.557C155.143 13.557 153.785 14.5817 153.785 16.734ZM160.514 30.1639C160.624 31.705 159.398 32.3108 156.933 32.3108C154.934 32.3108 153.873 31.9165 153.873 30.4056C153.873 29.5898 153.948 29.0141 154.797 28.7724H157.125C157.164 28.7724 157.202 28.7724 157.24 28.7724C159.15 28.7718 160.461 28.7714 160.514 30.1639Z" fill="white"/>
<path d="M71.1785 7.286V3.46217H54.084V7.286H60.6073V24.1575H64.6552V7.286H71.1785Z" fill="white"/>
<path d="M215.289 7.76137C216.79 7.76137 218 6.54546 218 5.04426C218 3.54305 216.786 2.32715 215.289 2.32715C213.791 2.32715 212.578 3.54305 212.578 5.04426C212.578 6.54546 213.791 7.76137 215.289 7.76137ZM215.289 7.04473C214.188 7.04473 213.296 6.14808 213.296 5.04426C213.296 3.94043 214.188 3.04379 215.289 3.04379C216.393 3.04379 217.285 3.94043 217.285 5.04426C217.285 6.15148 216.393 7.04473 215.289 7.04473ZM214.31 6.26696H214.96V5.42465H215.377L215.763 6.26696H216.475L216 5.30238C216.241 5.16653 216.4 4.92538 216.4 4.58914C216.4 4.0627 216.007 3.76042 215.533 3.76042H214.31V6.26696ZM214.96 4.95255V4.24271H215.37C215.553 4.24271 215.716 4.3412 215.716 4.58914C215.716 4.83028 215.556 4.95255 215.367 4.95255H214.96Z" fill="white"/>
<path d="M4.35843 3.54639V24.1608H0V3.54639H4.35843Z" fill="white"/>
<path d="M10.7345 15.2225V24.1608H6.44655V8.7H10.5332V11.4278H10.7144C11.0566 10.5286 11.6304 9.81729 12.4356 9.29388C13.2409 8.76375 14.2172 8.49869 15.3647 8.49869C16.4384 8.49869 17.3745 8.73355 18.173 9.20328C18.9716 9.67302 19.5923 10.3441 20.0352 11.2164C20.4781 12.0821 20.6995 13.1155 20.6995 14.3166V24.1608H16.4115V15.0816C16.4183 14.1355 16.1767 13.3973 15.6868 12.8672C15.197 12.3303 14.5226 12.0619 13.6636 12.0619C13.0865 12.0619 12.5765 12.1861 12.1336 12.4344C11.6975 12.6826 11.3552 13.045 11.1069 13.5215C10.8654 13.9912 10.7412 14.5582 10.7345 15.2225Z" fill="white"/>
<path d="M30.8855 8.7V11.921H21.5747V8.7H30.8855ZM23.6885 4.99584H27.9765V19.4099C27.9765 19.8058 28.0369 20.1145 28.1577 20.3359C28.2785 20.5506 28.4462 20.7016 28.6609 20.7889C28.8824 20.8761 29.1374 20.9197 29.4259 20.9197C29.6273 20.9197 29.8286 20.9029 30.0299 20.8694C30.2312 20.8291 30.3855 20.7989 30.4929 20.7788L31.1673 23.9696C30.9526 24.0367 30.6506 24.1139 30.2614 24.2011C29.8722 24.2951 29.3991 24.3521 28.8421 24.3722C27.8087 24.4125 26.9028 24.2749 26.1244 23.9595C25.3527 23.6441 24.7521 23.1543 24.3227 22.4899C23.8932 21.8256 23.6818 20.9868 23.6885 19.9735V4.99584Z" fill="white"/>
<path d="M32.2614 24.1608V8.7H36.4185V11.3976H36.5796C36.8614 10.438 37.3345 9.71328 37.9989 9.22342C38.6632 8.72684 39.4282 8.47856 40.2938 8.47856C40.5086 8.47856 40.7401 8.49198 40.9884 8.51882C41.2366 8.54566 41.4547 8.58257 41.6426 8.62954V12.4344C41.4413 12.374 41.1628 12.3203 40.8072 12.2733C40.4515 12.2263 40.1261 12.2029 39.8308 12.2029C39.2 12.2029 38.6363 12.3404 38.1398 12.6155C37.6499 12.884 37.2607 13.2597 36.9722 13.7429C36.6903 14.226 36.5494 14.783 36.5494 15.4138V24.1608H32.2614Z" fill="white"/>
<path d="M42.7157 7.16124C43.3035 7.16124 43.7772 6.69907 43.7772 6.12847C43.7772 5.55787 43.3022 5.0957 42.7157 5.0957C42.1293 5.0957 41.6543 5.55787 41.6543 6.12847C41.6543 6.69907 42.1293 7.16124 42.7157 7.16124ZM42.7157 6.88884C42.2845 6.88884 41.9356 6.54803 41.9356 6.12847C41.9356 5.70891 42.2845 5.3681 42.7157 5.3681C43.1483 5.3681 43.4973 5.70891 43.4973 6.12847C43.4973 6.54932 43.1483 6.88884 42.7157 6.88884ZM42.3323 6.59322H42.587V6.27306H42.7502L42.9015 6.59322H43.1801L42.9944 6.22658C43.0886 6.17494 43.1509 6.08329 43.1509 5.95548C43.1509 5.75538 42.997 5.64049 42.8113 5.64049H42.3323V6.59322ZM42.587 6.09361V5.8238H42.7476C42.8192 5.8238 42.8829 5.86124 42.8829 5.95548C42.8829 6.04714 42.8206 6.09361 42.7463 6.09361H42.587Z" fill="white"/>
<path d="M51.6465 0L44.1314 28.0397H41.6719L49.187 0H51.6465Z" fill="white"/>
</svg>
