<svg viewBox="0 0 46 46" fill="none" xmlns="http://www.w3.org/2000/svg">
<path d="M36.8031 20.992L11.3031 5.42633C10.8784 5.15716 10.3878 5.00985 9.88506 5.00048C9.38228 4.99111 8.88659 5.12004 8.4521 5.3732C8.01118 5.61511 7.64362 5.97139 7.38808 6.40455C7.13255 6.83771 6.99849 7.33174 7.00001 7.83466V39.0013C6.99849 39.5042 7.13255 39.9983 7.38808 40.4314C7.64362 40.8646 8.01118 41.2209 8.4521 41.4628C8.88659 41.7159 9.38228 41.8449 9.88506 41.8355C10.3878 41.8261 10.8784 41.6788 11.3031 41.4097L36.8031 25.844C37.2211 25.5919 37.5668 25.236 37.8068 24.811C38.0468 24.3859 38.1729 23.9061 38.1729 23.418C38.1729 22.9299 38.0468 22.45 37.8068 22.025C37.5668 21.5999 37.2211 21.2441 36.8031 20.992V20.992Z" fill="black"/>
</svg>
