<svg viewBox="0 0 44 45" fill="none" xmlns="http://www.w3.org/2000/svg">
<path d="M38.2935 20.2379L13.974 5.39292C13.5689 5.13621 13.1011 4.99572 12.6216 4.98678C12.1421 4.97785 11.6694 5.10081 11.255 5.34225C10.8345 5.57296 10.4839 5.91274 10.2402 6.32585C9.99653 6.73896 9.86868 7.21012 9.87013 7.68975V37.4135C9.86868 37.8932 9.99653 38.3643 10.2402 38.7774C10.4839 39.1905 10.8345 39.5303 11.255 39.761C11.6694 40.0025 12.1421 40.1254 12.6216 40.1165C13.1011 40.1076 13.5689 39.9671 13.974 39.7104L38.2935 24.8654C38.6921 24.6249 39.0218 24.2855 39.2507 23.8802C39.4795 23.4748 39.5998 23.0172 39.5998 22.5516C39.5998 22.0861 39.4795 21.6285 39.2507 21.2231C39.0218 20.8177 38.6921 20.4784 38.2935 20.2379Z" fill="black"/>
</svg>
